<svg width="31" height="30" viewBox="0 0 31 30" fill="none" xmlns="http://www.w3.org/2000/svg">
<path d="M13.5 9.5C13.5 11.8333 13.1111 13 10 13C6.88889 13 6.5 11.8333 6.5 9.5C6.5 7.16667 6.9375 6 10 6C13.0625 6 13.5 7.16667 13.5 9.5Z" fill="#34C759" stroke="#34C759" stroke-width="1.5" stroke-linecap="round" stroke-linejoin="round"/>
<path d="M13.5 20.5C13.5 22.8333 13.1111 24 10 24C6.88889 24 6.5 22.8333 6.5 20.5C6.5 18.1667 6.9375 17 10 17C13.0625 17 13.5 18.1667 13.5 20.5Z" fill="#34C759" stroke="#34C759" stroke-width="1.5" stroke-linecap="round" stroke-linejoin="round"/>
<path d="M24.5 20.5C24.5 22.8333 24.1111 24 21 24C17.8889 24 17.5 22.8333 17.5 20.5C17.5 18.1667 17.9375 17 21 17C24.0625 17 24.5 18.1667 24.5 20.5Z" fill="#34C759" stroke="#34C759" stroke-width="1.5" stroke-linecap="round" stroke-linejoin="round"/>
</svg>
